<?xml version="1.0" encoding="UTF-8" standalone="no"?>
<svg
   width="11in"
   height="8.5in"
   viewBox="0 0 1056 816"
   version="1.1"
   id="svg598"
   sodipodi:docname="day-planner.svg"
   inkscape:version="1.1.2 (0a00cf5339, 2022-02-04)"
   xmlns:inkscape="http://www.inkscape.org/namespaces/inkscape"
   xmlns:sodipodi="http://sodipodi.sourceforge.net/DTD/sodipodi-0.dtd"
   xmlns="http://www.w3.org/2000/svg"
   xmlns:svg="http://www.w3.org/2000/svg">
  <sodipodi:namedview
     id="namedview600"
     pagecolor="#ffffff"
     bordercolor="#666666"
     borderopacity="1.0"
     inkscape:pageshadow="2"
     inkscape:pageopacity="0.0"
     inkscape:pagecheckerboard="0"
     inkscape:document-units="in"
     showgrid="false"
     inkscape:zoom="0.6906594"
     inkscape:cx="496.62685"
     inkscape:cy="74.566422"
     inkscape:window-width="1920"
     inkscape:window-height="1016"
     inkscape:window-x="0"
     inkscape:window-y="27"
     inkscape:window-maximized="1"
     inkscape:current-layer="svg598" />
  <defs
     id="defs4">
    <style
       id="style2">
      .time  { font-family: 'Inter', 'Helvetica', 'Arial', sans-serif; fill: #3b0d66; font-size: 13px; }
      .hline { stroke: #7a90cf; stroke-width: 1.5; opacity: 0.85; }
      .mline { stroke: #dfe5f8; stroke-width: 0.8; opacity: 1.0; }
      .box   { fill: white; stroke: #6a8ad9; stroke-width: 1.2; rx: 10; ry: 10; }
      .head  { font-family: 'Inter','Helvetica','Arial'; font-weight: 700; letter-spacing: 0.8px; fill: #2b4da7; }
      .rule  { stroke: #2b4da7; stroke-width: 0.9; opacity: 0.6; }
      .dayhead { font-family: 'Inter','Helvetica','Arial'; font-weight: 700; fill: #1f3f99; font-size: 16px; }
    </style>
  </defs>
  <rect
     x="38"
     y="38"
     width="131"
     height="740"
     fill="white"
     opacity="0.98"
     id="rect8" />
  <line
     x1="80"
     y1="38.000"
     x2="163"
     y2="38.000"
     class="hline"
     id="line10" />
  <text
     x="42"
     y="38.000"
     class="time"
     id="text12">6:00</text>
  <line
     x1="92.450"
     y1="59.143"
     x2="150.550"
     y2="59.143"
     class="mline"
     id="line14" />
  <text
     x="42"
     y="59.143"
     class="time"
     id="text16">6:30</text>
  <line
     x1="80"
     y1="80.286"
     x2="163"
     y2="80.286"
     class="hline"
     id="line18" />
  <text
     x="42"
     y="80.286"
     class="time"
     id="text20">7:00</text>
  <line
     x1="92.450"
     y1="101.429"
     x2="150.550"
     y2="101.429"
     class="mline"
     id="line22" />
  <text
     x="42"
     y="101.429"
     class="time"
     id="text24">7:30</text>
  <line
     x1="80"
     y1="122.571"
     x2="163"
     y2="122.571"
     class="hline"
     id="line26" />
  <text
     x="42"
     y="122.571"
     class="time"
     id="text28">8:00</text>
  <line
     x1="92.450"
     y1="143.714"
     x2="150.550"
     y2="143.714"
     class="mline"
     id="line30" />
  <text
     x="42"
     y="143.714"
     class="time"
     id="text32">8:30</text>
  <line
     x1="80"
     y1="164.857"
     x2="163"
     y2="164.857"
     class="hline"
     id="line34" />
  <text
     x="42"
     y="164.857"
     class="time"
     id="text36">9:00</text>
  <line
     x1="92.450"
     y1="186.000"
     x2="150.550"
     y2="186.000"
     class="mline"
     id="line38" />
  <text
     x="42"
     y="186.000"
     class="time"
     id="text40">9:30</text>
  <line
     x1="80"
     y1="207.143"
     x2="163"
     y2="207.143"
     class="hline"
     id="line42" />
  <text
     x="42"
     y="207.143"
     class="time"
     id="text44">10:00</text>
  <line
     x1="92.450"
     y1="228.286"
     x2="150.550"
     y2="228.286"
     class="mline"
     id="line46" />
  <text
     x="42"
     y="228.286"
     class="time"
     id="text48">10:30</text>
  <line
     x1="80"
     y1="249.429"
     x2="163"
     y2="249.429"
     class="hline"
     id="line50" />
  <text
     x="42"
     y="249.429"
     class="time"
     id="text52">11:00</text>
  <line
     x1="92.450"
     y1="270.571"
     x2="150.550"
     y2="270.571"
     class="mline"
     id="line54" />
  <text
     x="42"
     y="270.571"
     class="time"
     id="text56">11:30</text>
  <line
     x1="80"
     y1="291.714"
     x2="163"
     y2="291.714"
     class="hline"
     id="line58" />
  <text
     x="42"
     y="291.714"
     class="time"
     id="text60">12:00</text>
  <line
     x1="92.450"
     y1="312.857"
     x2="150.550"
     y2="312.857"
     class="mline"
     id="line62" />
  <text
     x="42"
     y="312.857"
     class="time"
     id="text64">12:30</text>
  <line
     x1="80"
     y1="334.000"
     x2="163"
     y2="334.000"
     class="hline"
     id="line66" />
  <text
     x="42"
     y="334.000"
     class="time"
     id="text68">1:00</text>
  <line
     x1="92.450"
     y1="355.143"
     x2="150.550"
     y2="355.143"
     class="mline"
     id="line70" />
  <text
     x="42"
     y="355.143"
     class="time"
     id="text72">1:30</text>
  <line
     x1="80"
     y1="376.286"
     x2="163"
     y2="376.286"
     class="hline"
     id="line74" />
  <text
     x="42"
     y="376.286"
     class="time"
     id="text76">2:00</text>
  <line
     x1="92.450"
     y1="397.429"
     x2="150.550"
     y2="397.429"
     class="mline"
     id="line78" />
  <text
     x="42"
     y="397.429"
     class="time"
     id="text80">2:30</text>
  <line
     x1="80"
     y1="418.571"
     x2="163"
     y2="418.571"
     class="hline"
     id="line82" />
  <text
     x="42"
     y="418.571"
     class="time"
     id="text84">3:00</text>
  <line
     x1="92.450"
     y1="439.714"
     x2="150.550"
     y2="439.714"
     class="mline"
     id="line86" />
  <text
     x="42"
     y="439.714"
     class="time"
     id="text88">3:30</text>
  <line
     x1="80"
     y1="460.857"
     x2="163"
     y2="460.857"
     class="hline"
     id="line90" />
  <text
     x="42"
     y="460.857"
     class="time"
     id="text92">4:00</text>
  <line
     x1="92.450"
     y1="482.000"
     x2="150.550"
     y2="482.000"
     class="mline"
     id="line94" />
  <text
     x="42"
     y="482.000"
     class="time"
     id="text96">4:30</text>
  <line
     x1="80"
     y1="503.143"
     x2="163"
     y2="503.143"
     class="hline"
     id="line98" />
  <text
     x="42"
     y="503.143"
     class="time"
     id="text100">5:00</text>
  <line
     x1="92.450"
     y1="524.286"
     x2="150.550"
     y2="524.286"
     class="mline"
     id="line102" />
  <text
     x="42"
     y="524.286"
     class="time"
     id="text104">5:30</text>
  <line
     x1="80"
     y1="545.429"
     x2="163"
     y2="545.429"
     class="hline"
     id="line106" />
  <text
     x="42"
     y="545.429"
     class="time"
     id="text108">6:00</text>
  <line
     x1="92.450"
     y1="566.571"
     x2="150.550"
     y2="566.571"
     class="mline"
     id="line110" />
  <text
     x="42"
     y="566.571"
     class="time"
     id="text112">6:30</text>
  <line
     x1="80"
     y1="587.714"
     x2="163"
     y2="587.714"
     class="hline"
     id="line114" />
  <text
     x="42"
     y="587.714"
     class="time"
     id="text116">7:00</text>
  <line
     x1="92.450"
     y1="608.857"
     x2="150.550"
     y2="608.857"
     class="mline"
     id="line118" />
  <text
     x="42"
     y="608.857"
     class="time"
     id="text120">7:30</text>
  <line
     x1="80"
     y1="630.000"
     x2="163"
     y2="630.000"
     class="hline"
     id="line122" />
  <text
     x="42"
     y="630.000"
     class="time"
     id="text124">8:00</text>
  <line
     x1="92.450"
     y1="651.143"
     x2="150.550"
     y2="651.143"
     class="mline"
     id="line126" />
  <text
     x="42"
     y="651.143"
     class="time"
     id="text128">8:30</text>
  <line
     x1="80"
     y1="672.286"
     x2="163"
     y2="672.286"
     class="hline"
     id="line130" />
  <text
     x="42"
     y="672.286"
     class="time"
     id="text132">9:00</text>
  <line
     x1="92.450"
     y1="693.429"
     x2="150.550"
     y2="693.429"
     class="mline"
     id="line134" />
  <text
     x="42"
     y="693.429"
     class="time"
     id="text136">9:30</text>
  <line
     x1="80"
     y1="714.571"
     x2="163"
     y2="714.571"
     class="hline"
     id="line138" />
  <text
     x="42"
     y="714.571"
     class="time"
     id="text140">10:00</text>
  <line
     x1="92.450"
     y1="735.714"
     x2="150.550"
     y2="735.714"
     class="mline"
     id="line142" />
  <text
     x="42"
     y="735.714"
     class="time"
     id="text144">10:30</text>
  <line
     x1="80"
     y1="756.857"
     x2="163"
     y2="756.857"
     class="hline"
     id="line146" />
  <text
     x="42"
     y="756.857"
     class="time"
     id="text148">11:00</text>
  <line
     x1="92.450"
     y1="778.000"
     x2="150.550"
     y2="778.000"
     class="mline"
     id="line150" />
  <text
     x="42"
     y="778.000"
     class="time"
     id="text152">11:30</text>
  <rect
     x="193"
     y="38"
     width="131"
     height="740"
     fill="white"
     opacity="0.98"
     id="rect154" />
  <line
     x1="235"
     y1="38.000"
     x2="318"
     y2="38.000"
     class="hline"
     id="line156" />
  <text
     x="197"
     y="38.000"
     class="time"
     id="text158">6:00</text>
  <line
     x1="247.450"
     y1="59.143"
     x2="305.550"
     y2="59.143"
     class="mline"
     id="line160" />
  <text
     x="197"
     y="59.143"
     class="time"
     id="text162">6:30</text>
  <line
     x1="235"
     y1="80.286"
     x2="318"
     y2="80.286"
     class="hline"
     id="line164" />
  <text
     x="197"
     y="80.286"
     class="time"
     id="text166">7:00</text>
  <line
     x1="247.450"
     y1="101.429"
     x2="305.550"
     y2="101.429"
     class="mline"
     id="line168" />
  <text
     x="197"
     y="101.429"
     class="time"
     id="text170">7:30</text>
  <line
     x1="235"
     y1="122.571"
     x2="318"
     y2="122.571"
     class="hline"
     id="line172" />
  <text
     x="197"
     y="122.571"
     class="time"
     id="text174">8:00</text>
  <line
     x1="247.450"
     y1="143.714"
     x2="305.550"
     y2="143.714"
     class="mline"
     id="line176" />
  <text
     x="197"
     y="143.714"
     class="time"
     id="text178">8:30</text>
  <line
     x1="235"
     y1="164.857"
     x2="318"
     y2="164.857"
     class="hline"
     id="line180" />
  <text
     x="197"
     y="164.857"
     class="time"
     id="text182">9:00</text>
  <line
     x1="247.450"
     y1="186.000"
     x2="305.550"
     y2="186.000"
     class="mline"
     id="line184" />
  <text
     x="197"
     y="186.000"
     class="time"
     id="text186">9:30</text>
  <line
     x1="235"
     y1="207.143"
     x2="318"
     y2="207.143"
     class="hline"
     id="line188" />
  <text
     x="197"
     y="207.143"
     class="time"
     id="text190">10:00</text>
  <line
     x1="247.450"
     y1="228.286"
     x2="305.550"
     y2="228.286"
     class="mline"
     id="line192" />
  <text
     x="197"
     y="228.286"
     class="time"
     id="text194">10:30</text>
  <line
     x1="235"
     y1="249.429"
     x2="318"
     y2="249.429"
     class="hline"
     id="line196" />
  <text
     x="197"
     y="249.429"
     class="time"
     id="text198">11:00</text>
  <line
     x1="247.450"
     y1="270.571"
     x2="305.550"
     y2="270.571"
     class="mline"
     id="line200" />
  <text
     x="197"
     y="270.571"
     class="time"
     id="text202">11:30</text>
  <line
     x1="235"
     y1="291.714"
     x2="318"
     y2="291.714"
     class="hline"
     id="line204" />
  <text
     x="197"
     y="291.714"
     class="time"
     id="text206">12:00</text>
  <line
     x1="247.450"
     y1="312.857"
     x2="305.550"
     y2="312.857"
     class="mline"
     id="line208" />
  <text
     x="197"
     y="312.857"
     class="time"
     id="text210">12:30</text>
  <line
     x1="235"
     y1="334.000"
     x2="318"
     y2="334.000"
     class="hline"
     id="line212" />
  <text
     x="197"
     y="334.000"
     class="time"
     id="text214">1:00</text>
  <line
     x1="247.450"
     y1="355.143"
     x2="305.550"
     y2="355.143"
     class="mline"
     id="line216" />
  <text
     x="197"
     y="355.143"
     class="time"
     id="text218">1:30</text>
  <line
     x1="235"
     y1="376.286"
     x2="318"
     y2="376.286"
     class="hline"
     id="line220" />
  <text
     x="197"
     y="376.286"
     class="time"
     id="text222">2:00</text>
  <line
     x1="247.450"
     y1="397.429"
     x2="305.550"
     y2="397.429"
     class="mline"
     id="line224" />
  <text
     x="197"
     y="397.429"
     class="time"
     id="text226">2:30</text>
  <line
     x1="235"
     y1="418.571"
     x2="318"
     y2="418.571"
     class="hline"
     id="line228" />
  <text
     x="197"
     y="418.571"
     class="time"
     id="text230">3:00</text>
  <line
     x1="247.450"
     y1="439.714"
     x2="305.550"
     y2="439.714"
     class="mline"
     id="line232" />
  <text
     x="197"
     y="439.714"
     class="time"
     id="text234">3:30</text>
  <line
     x1="235"
     y1="460.857"
     x2="318"
     y2="460.857"
     class="hline"
     id="line236" />
  <text
     x="197"
     y="460.857"
     class="time"
     id="text238">4:00</text>
  <line
     x1="247.450"
     y1="482.000"
     x2="305.550"
     y2="482.000"
     class="mline"
     id="line240" />
  <text
     x="197"
     y="482.000"
     class="time"
     id="text242">4:30</text>
  <line
     x1="235"
     y1="503.143"
     x2="318"
     y2="503.143"
     class="hline"
     id="line244" />
  <text
     x="197"
     y="503.143"
     class="time"
     id="text246">5:00</text>
  <line
     x1="247.450"
     y1="524.286"
     x2="305.550"
     y2="524.286"
     class="mline"
     id="line248" />
  <text
     x="197"
     y="524.286"
     class="time"
     id="text250">5:30</text>
  <line
     x1="235"
     y1="545.429"
     x2="318"
     y2="545.429"
     class="hline"
     id="line252" />
  <text
     x="197"
     y="545.429"
     class="time"
     id="text254">6:00</text>
  <line
     x1="247.450"
     y1="566.571"
     x2="305.550"
     y2="566.571"
     class="mline"
     id="line256" />
  <text
     x="197"
     y="566.571"
     class="time"
     id="text258">6:30</text>
  <line
     x1="235"
     y1="587.714"
     x2="318"
     y2="587.714"
     class="hline"
     id="line260" />
  <text
     x="197"
     y="587.714"
     class="time"
     id="text262">7:00</text>
  <line
     x1="247.450"
     y1="608.857"
     x2="305.550"
     y2="608.857"
     class="mline"
     id="line264" />
  <text
     x="197"
     y="608.857"
     class="time"
     id="text266">7:30</text>
  <line
     x1="235"
     y1="630.000"
     x2="318"
     y2="630.000"
     class="hline"
     id="line268" />
  <text
     x="197"
     y="630.000"
     class="time"
     id="text270">8:00</text>
  <line
     x1="247.450"
     y1="651.143"
     x2="305.550"
     y2="651.143"
     class="mline"
     id="line272" />
  <text
     x="197"
     y="651.143"
     class="time"
     id="text274">8:30</text>
  <line
     x1="235"
     y1="672.286"
     x2="318"
     y2="672.286"
     class="hline"
     id="line276" />
  <text
     x="197"
     y="672.286"
     class="time"
     id="text278">9:00</text>
  <line
     x1="247.450"
     y1="693.429"
     x2="305.550"
     y2="693.429"
     class="mline"
     id="line280" />
  <text
     x="197"
     y="693.429"
     class="time"
     id="text282">9:30</text>
  <line
     x1="235"
     y1="714.571"
     x2="318"
     y2="714.571"
     class="hline"
     id="line284" />
  <text
     x="197"
     y="714.571"
     class="time"
     id="text286">10:00</text>
  <line
     x1="247.450"
     y1="735.714"
     x2="305.550"
     y2="735.714"
     class="mline"
     id="line288" />
  <text
     x="197"
     y="735.714"
     class="time"
     id="text290">10:30</text>
  <line
     x1="235"
     y1="756.857"
     x2="318"
     y2="756.857"
     class="hline"
     id="line292" />
  <text
     x="197"
     y="756.857"
     class="time"
     id="text294">11:00</text>
  <line
     x1="247.450"
     y1="778.000"
     x2="305.550"
     y2="778.000"
     class="mline"
     id="line296" />
  <text
     x="197"
     y="778.000"
     class="time"
     id="text298">11:30</text>
  <rect
     x="348"
     y="38"
     width="131"
     height="740"
     fill="white"
     opacity="0.98"
     id="rect300" />
  <line
     x1="390"
     y1="38.000"
     x2="473"
     y2="38.000"
     class="hline"
     id="line302" />
  <text
     x="352"
     y="38.000"
     class="time"
     id="text304">6:00</text>
  <line
     x1="402.450"
     y1="59.143"
     x2="460.550"
     y2="59.143"
     class="mline"
     id="line306" />
  <text
     x="352"
     y="59.143"
     class="time"
     id="text308">6:30</text>
  <line
     x1="390"
     y1="80.286"
     x2="473"
     y2="80.286"
     class="hline"
     id="line310" />
  <text
     x="352"
     y="80.286"
     class="time"
     id="text312">7:00</text>
  <line
     x1="402.450"
     y1="101.429"
     x2="460.550"
     y2="101.429"
     class="mline"
     id="line314" />
  <text
     x="352"
     y="101.429"
     class="time"
     id="text316">7:30</text>
  <line
     x1="390"
     y1="122.571"
     x2="473"
     y2="122.571"
     class="hline"
     id="line318" />
  <text
     x="352"
     y="122.571"
     class="time"
     id="text320">8:00</text>
  <line
     x1="402.450"
     y1="143.714"
     x2="460.550"
     y2="143.714"
     class="mline"
     id="line322" />
  <text
     x="352"
     y="143.714"
     class="time"
     id="text324">8:30</text>
  <line
     x1="390"
     y1="164.857"
     x2="473"
     y2="164.857"
     class="hline"
     id="line326" />
  <text
     x="352"
     y="164.857"
     class="time"
     id="text328">9:00</text>
  <line
     x1="402.450"
     y1="186.000"
     x2="460.550"
     y2="186.000"
     class="mline"
     id="line330" />
  <text
     x="352"
     y="186.000"
     class="time"
     id="text332">9:30</text>
  <line
     x1="390"
     y1="207.143"
     x2="473"
     y2="207.143"
     class="hline"
     id="line334" />
  <text
     x="352"
     y="207.143"
     class="time"
     id="text336">10:00</text>
  <line
     x1="402.450"
     y1="228.286"
     x2="460.550"
     y2="228.286"
     class="mline"
     id="line338" />
  <text
     x="352"
     y="228.286"
     class="time"
     id="text340">10:30</text>
  <line
     x1="390"
     y1="249.429"
     x2="473"
     y2="249.429"
     class="hline"
     id="line342" />
  <text
     x="352"
     y="249.429"
     class="time"
     id="text344">11:00</text>
  <line
     x1="402.450"
     y1="270.571"
     x2="460.550"
     y2="270.571"
     class="mline"
     id="line346" />
  <text
     x="352"
     y="270.571"
     class="time"
     id="text348">11:30</text>
  <line
     x1="390"
     y1="291.714"
     x2="473"
     y2="291.714"
     class="hline"
     id="line350" />
  <text
     x="352"
     y="291.714"
     class="time"
     id="text352">12:00</text>
  <line
     x1="402.450"
     y1="312.857"
     x2="460.550"
     y2="312.857"
     class="mline"
     id="line354" />
  <text
     x="352"
     y="312.857"
     class="time"
     id="text356">12:30</text>
  <line
     x1="390"
     y1="334.000"
     x2="473"
     y2="334.000"
     class="hline"
     id="line358" />
  <text
     x="352"
     y="334.000"
     class="time"
     id="text360">1:00</text>
  <line
     x1="402.450"
     y1="355.143"
     x2="460.550"
     y2="355.143"
     class="mline"
     id="line362" />
  <text
     x="352"
     y="355.143"
     class="time"
     id="text364">1:30</text>
  <line
     x1="390"
     y1="376.286"
     x2="473"
     y2="376.286"
     class="hline"
     id="line366" />
  <text
     x="352"
     y="376.286"
     class="time"
     id="text368">2:00</text>
  <line
     x1="402.450"
     y1="397.429"
     x2="460.550"
     y2="397.429"
     class="mline"
     id="line370" />
  <text
     x="352"
     y="397.429"
     class="time"
     id="text372">2:30</text>
  <line
     x1="390"
     y1="418.571"
     x2="473"
     y2="418.571"
     class="hline"
     id="line374" />
  <text
     x="352"
     y="418.571"
     class="time"
     id="text376">3:00</text>
  <line
     x1="402.450"
     y1="439.714"
     x2="460.550"
     y2="439.714"
     class="mline"
     id="line378" />
  <text
     x="352"
     y="439.714"
     class="time"
     id="text380">3:30</text>
  <line
     x1="390"
     y1="460.857"
     x2="473"
     y2="460.857"
     class="hline"
     id="line382" />
  <text
     x="352"
     y="460.857"
     class="time"
     id="text384">4:00</text>
  <line
     x1="402.450"
     y1="482.000"
     x2="460.550"
     y2="482.000"
     class="mline"
     id="line386" />
  <text
     x="352"
     y="482.000"
     class="time"
     id="text388">4:30</text>
  <line
     x1="390"
     y1="503.143"
     x2="473"
     y2="503.143"
     class="hline"
     id="line390" />
  <text
     x="352"
     y="503.143"
     class="time"
     id="text392">5:00</text>
  <line
     x1="402.450"
     y1="524.286"
     x2="460.550"
     y2="524.286"
     class="mline"
     id="line394" />
  <text
     x="352"
     y="524.286"
     class="time"
     id="text396">5:30</text>
  <line
     x1="390"
     y1="545.429"
     x2="473"
     y2="545.429"
     class="hline"
     id="line398" />
  <text
     x="352"
     y="545.429"
     class="time"
     id="text400">6:00</text>
  <line
     x1="402.450"
     y1="566.571"
     x2="460.550"
     y2="566.571"
     class="mline"
     id="line402" />
  <text
     x="352"
     y="566.571"
     class="time"
     id="text404">6:30</text>
  <line
     x1="390"
     y1="587.714"
     x2="473"
     y2="587.714"
     class="hline"
     id="line406" />
  <text
     x="352"
     y="587.714"
     class="time"
     id="text408">7:00</text>
  <line
     x1="402.450"
     y1="608.857"
     x2="460.550"
     y2="608.857"
     class="mline"
     id="line410" />
  <text
     x="352"
     y="608.857"
     class="time"
     id="text412">7:30</text>
  <line
     x1="390"
     y1="630.000"
     x2="473"
     y2="630.000"
     class="hline"
     id="line414" />
  <text
     x="352"
     y="630.000"
     class="time"
     id="text416">8:00</text>
  <line
     x1="402.450"
     y1="651.143"
     x2="460.550"
     y2="651.143"
     class="mline"
     id="line418" />
  <text
     x="352"
     y="651.143"
     class="time"
     id="text420">8:30</text>
  <line
     x1="390"
     y1="672.286"
     x2="473"
     y2="672.286"
     class="hline"
     id="line422" />
  <text
     x="352"
     y="672.286"
     class="time"
     id="text424">9:00</text>
  <line
     x1="402.450"
     y1="693.429"
     x2="460.550"
     y2="693.429"
     class="mline"
     id="line426" />
  <text
     x="352"
     y="693.429"
     class="time"
     id="text428">9:30</text>
  <line
     x1="390"
     y1="714.571"
     x2="473"
     y2="714.571"
     class="hline"
     id="line430" />
  <text
     x="352"
     y="714.571"
     class="time"
     id="text432">10:00</text>
  <line
     x1="402.450"
     y1="735.714"
     x2="460.550"
     y2="735.714"
     class="mline"
     id="line434" />
  <text
     x="352"
     y="735.714"
     class="time"
     id="text436">10:30</text>
  <line
     x1="390"
     y1="756.857"
     x2="473"
     y2="756.857"
     class="hline"
     id="line438" />
  <text
     x="352"
     y="756.857"
     class="time"
     id="text440">11:00</text>
  <line
     x1="402.450"
     y1="778.000"
     x2="460.550"
     y2="778.000"
     class="mline"
     id="line442" />
  <text
     x="352"
     y="778.000"
     class="time"
     id="text444">11:30</text>
  <rect
     x="503"
     y="79.737427"
     width="201"
     height="694.26257"
     fill="#ffffff"
     opacity="0.98"
     stroke="#cad5f5"
     stroke-width="1.24369"
     rx="12"
     ry="11.258311"
     id="rect446" />
  <text
     x="518.13977"
     y="100.36459"
     class="head"
     id="text448">GENERAL:</text>
  <line
     x1="517"
     y1="110"
     x2="690"
     y2="110"
     class="rule"
     id="line454" />
  <line
     x1="517"
     y1="128"
     x2="690"
     y2="128"
     class="rule"
     id="line456" />
  <line
     x1="517"
     y1="146"
     x2="690"
     y2="146"
     class="rule"
     id="line458" />
  <line
     x1="517"
     y1="164"
     x2="690"
     y2="164"
     class="rule"
     id="line460" />
  <line
     x1="517"
     y1="182"
     x2="690"
     y2="182"
     class="rule"
     id="line462" />
  <line
     x1="517"
     y1="200"
     x2="690"
     y2="200"
     class="rule"
     id="line464" />
  <line
     x1="517"
     y1="218"
     x2="690"
     y2="218"
     class="rule"
     id="line466" />
  <line
     x1="517"
     y1="236"
     x2="690"
     y2="236"
     class="rule"
     id="line468" />
  <line
     x1="517"
     y1="254"
     x2="690"
     y2="254"
     class="rule"
     id="line470" />
  <line
     x1="517"
     y1="272"
     x2="690"
     y2="272"
     class="rule"
     id="line472" />
  <line
     x1="517"
     y1="290"
     x2="690"
     y2="290"
     class="rule"
     id="line474" />
  <line
     x1="517"
     y1="308"
     x2="690"
     y2="308"
     class="rule"
     id="line476" />
  <line
     x1="517"
     y1="326"
     x2="690"
     y2="326"
     class="rule"
     id="line478" />
  <line
     x1="517"
     y1="344"
     x2="690"
     y2="344"
     class="rule"
     id="line480" />
  <line
     x1="517"
     y1="362"
     x2="690"
     y2="362"
     class="rule"
     id="line482" />
  <line
     x1="517"
     y1="380"
     x2="690"
     y2="380"
     class="rule"
     id="line484" />
  <line
     x1="517"
     y1="398"
     x2="690"
     y2="398"
     class="rule"
     id="line486" />
  <line
     x1="517"
     y1="416"
     x2="690"
     y2="416"
     class="rule"
     id="line488" />
  <line
     x1="517"
     y1="434"
     x2="690"
     y2="434"
     class="rule"
     id="line490" />
  <line
     x1="517"
     y1="452"
     x2="690"
     y2="452"
     class="rule"
     id="line492" />
  <line
     x1="517"
     y1="470"
     x2="690"
     y2="470"
     class="rule"
     id="line494" />
  <line
     x1="517"
     y1="488"
     x2="690"
     y2="488"
     class="rule"
     id="line496" />
  <line
     x1="517"
     y1="506"
     x2="690"
     y2="506"
     class="rule"
     id="line498" />
  <line
     x1="517"
     y1="524"
     x2="690"
     y2="524"
     class="rule"
     id="line500" />
  <line
     x1="517"
     y1="542"
     x2="690"
     y2="542"
     class="rule"
     id="line502" />
  <line
     x1="517"
     y1="560"
     x2="690"
     y2="560"
     class="rule"
     id="line504" />
  <line
     x1="517"
     y1="578"
     x2="690"
     y2="578"
     class="rule"
     id="line506" />
  <line
     x1="517"
     y1="596"
     x2="690"
     y2="596"
     class="rule"
     id="line508" />
  <line
     x1="517"
     y1="614"
     x2="690"
     y2="614"
     class="rule"
     id="line510" />
  <line
     x1="517"
     y1="632"
     x2="690"
     y2="632"
     class="rule"
     id="line512" />
  <line
     x1="517"
     y1="650"
     x2="690"
     y2="650"
     class="rule"
     id="line514" />
  <line
     x1="517"
     y1="668"
     x2="690"
     y2="668"
     class="rule"
     id="line516" />
  <line
     x1="517"
     y1="686"
     x2="690"
     y2="686"
     class="rule"
     id="line518" />
  <line
     x1="517"
     y1="704"
     x2="690"
     y2="704"
     class="rule"
     id="line520" />
  <line
     x1="517"
     y1="722"
     x2="690"
     y2="722"
     class="rule"
     id="line522" />
  <line
     x1="517"
     y1="740"
     x2="690"
     y2="740"
     class="rule"
     id="line524" />
  <line
     x1="517"
     y1="758"
     x2="690"
     y2="758"
     class="rule"
     id="line526" />
  <text
     x="526.18689"
     y="54.543488"
     class="dayhead"
     id="text528">DAY:</text>
  <line
     x1="571.58374"
     y1="56"
     x2="1040"
     y2="56"
     class="rule"
     id="line530" />
  <rect
     x="728"
     y="81"
     width="312"
     height="240"
     class="box"
     id="rect532" />
  <text
     x="742"
     y="105"
     class="head"
     id="text534">COMMUNICATIONS:</text>
  <line
     x1="742"
     y1="119"
     x2="1026"
     y2="119"
     class="rule"
     id="line536" />
  <line
     x1="742"
     y1="137"
     x2="1026"
     y2="137"
     class="rule"
     id="line538" />
  <line
     x1="742"
     y1="155"
     x2="1026"
     y2="155"
     class="rule"
     id="line540" />
  <line
     x1="742"
     y1="173"
     x2="1026"
     y2="173"
     class="rule"
     id="line542" />
  <line
     x1="742"
     y1="191"
     x2="1026"
     y2="191"
     class="rule"
     id="line544" />
  <line
     x1="742"
     y1="209"
     x2="1026"
     y2="209"
     class="rule"
     id="line546" />
  <line
     x1="742"
     y1="227"
     x2="1026"
     y2="227"
     class="rule"
     id="line548" />
  <line
     x1="742"
     y1="245"
     x2="1026"
     y2="245"
     class="rule"
     id="line550" />
  <line
     x1="742"
     y1="263"
     x2="1026"
     y2="263"
     class="rule"
     id="line552" />
  <line
     x1="742"
     y1="281"
     x2="1026"
     y2="281"
     class="rule"
     id="line554" />
  <line
     x1="742"
     y1="299"
     x2="1026"
     y2="299"
     class="rule"
     id="line556" />
  <rect
     x="728"
     y="335"
     width="312"
     height="192"
     class="box"
     id="rect558" />
  <text
     x="742"
     y="359"
     class="head"
     id="text560">ERRANDS:</text>
  <line
     x1="742"
     y1="373"
     x2="1026"
     y2="373"
     class="rule"
     id="line562" />
  <line
     x1="742"
     y1="391"
     x2="1026"
     y2="391"
     class="rule"
     id="line564" />
  <line
     x1="742"
     y1="409"
     x2="1026"
     y2="409"
     class="rule"
     id="line566" />
  <line
     x1="742"
     y1="427"
     x2="1026"
     y2="427"
     class="rule"
     id="line568" />
  <line
     x1="742"
     y1="445"
     x2="1026"
     y2="445"
     class="rule"
     id="line570" />
  <line
     x1="742"
     y1="463"
     x2="1026"
     y2="463"
     class="rule"
     id="line572" />
  <line
     x1="742"
     y1="481"
     x2="1026"
     y2="481"
     class="rule"
     id="line574" />
  <line
     x1="742"
     y1="499"
     x2="1026"
     y2="499"
     class="rule"
     id="line576" />
  <rect
     x="728"
     y="541"
     width="312"
     height="192"
     class="box"
     id="rect578" />
  <text
     x="742"
     y="565"
     class="head"
     id="text580">DON'T FORGET:</text>
  <line
     x1="742"
     y1="579"
     x2="1026"
     y2="579"
     class="rule"
     id="line582" />
  <line
     x1="742"
     y1="597"
     x2="1026"
     y2="597"
     class="rule"
     id="line584" />
  <line
     x1="742"
     y1="615"
     x2="1026"
     y2="615"
     class="rule"
     id="line586" />
  <line
     x1="742"
     y1="633"
     x2="1026"
     y2="633"
     class="rule"
     id="line588" />
  <line
     x1="742"
     y1="651"
     x2="1026"
     y2="651"
     class="rule"
     id="line590" />
  <line
     x1="742"
     y1="669"
     x2="1026"
     y2="669"
     class="rule"
     id="line592" />
  <line
     x1="742"
     y1="687"
     x2="1026"
     y2="687"
     class="rule"
     id="line594" />
  <line
     x1="742"
     y1="705"
     x2="1026"
     y2="705"
     class="rule"
     id="line596" />
  <rect
     x="0"
     y="816"
     width="1056"
     height="816"
     fill="#ffffff"
     id="rect6-3" />
</svg>
